<svg xmlns="http://www.w3.org/2000/svg" viewBox="0 0 362.73 512"><path fill="#e44d26" d="M33.01 470.88L0 100.62h362.73l-33.04 370.2L181.15 512 33.01 470.88z"/><path fill="#f16529" d="M181.37 480.52l120.03-33.27 28.24-316.36H181.37v349.63z"/><path fill="#ebebeb" d="M181.37 268.22h-60.09l-4.15-46.5h64.24v-45.41H67.5l1.09 12.18 11.16 125.14h101.62v-45.41zM181.37 386.15l-.2.06-50.58-13.66-3.23-36.22H81.78l6.36 71.3 93.02 25.83.21-.06v-47.25z"/><path d="M33.75 0h23.08v22.8h21.11V0H101v69H77.94V45.92H56.83V69H33.75V0zM131.36 22.9h-20.31V0h63.72v22.9h-20.33V69h-23.08V22.9zM184.88 0h24.06l14.8 24.26L238.53 0h24.07v69h-23V34.82l-15.86 24.55h-.39l-15.89-24.55V69h-22.58zM274.09 0h23.08v46.22h32.45V69h-55.53z"/><path fill="#fff" d="M181.21 268.22v45.41h55.92l-5.27 58.89-50.65 13.67v47.25l93.09-25.81.69-7.67 10.67-119.55 1.11-12.19H181.21zM181.21 176.31v45.41H290.9l.91-10.21 2.07-23.02 1.08-12.18H181.21z"/></svg>