<?xml version="1.0" encoding="utf-8"?>
<!-- Generator: Adobe Illustrator 27.5.0, SVG Export Plug-In . SVG Version: 6.00 Build 0)  -->
<svg version="1.1" id="Layer_1" xmlns="http://www.w3.org/2000/svg" xmlns:xlink="http://www.w3.org/1999/xlink" x="0px" y="0px"
	 viewBox="0 0 240 234" style="enable-background:new 0 0 240 234;" xml:space="preserve">
<style type="text/css">
	.st0{fill:#081D34;}
	.st1{fill:#57A6F8;}
</style>
<path id="Bg" class="st0" d="M56.2,0h127.6c31,0,56.2,25.2,56.2,56.2v121.6c0,31-25.2,56.2-56.2,56.2H56.2C25.2,234,0,208.8,0,177.8
	V56.2C0,25.2,25.2,0,56.2,0z"/>
<g id="Ps">
	<path id="s" class="st1" d="M188.1,107.7c-2.9-1.5-5.9-2.6-9.2-3.2c-3.5-0.8-7.1-1.2-10.7-1.2c-1.9-0.1-3.9,0.2-5.7,0.7
		c-1.2,0.3-2.3,1-3,1.9c-0.5,0.8-0.8,1.7-0.8,2.6s0.4,1.7,1,2.5c0.9,1,2,1.9,3.2,2.6c2.2,1.1,4.5,2.2,6.8,3.1
		c5.2,1.7,10.1,4.1,14.7,7c3.1,2,5.7,4.7,7.5,7.9c1.5,3.1,2.3,6.4,2.2,9.8c0.1,4.5-1.2,9-3.7,12.7c-2.7,3.8-6.4,6.8-10.7,8.5
		c-4.7,2-10.4,3.1-17.3,3.1c-4.4,0-8.7-0.4-13-1.2c-3.3-0.6-6.7-1.6-9.7-3.1c-0.7-0.4-1.1-1-1-1.8v-16.6c0-0.3,0.1-0.7,0.4-0.9
		c0.3-0.2,0.6-0.1,0.9,0.1c3.7,2.2,7.6,3.7,11.8,4.7c3.6,1,7.4,1.4,11.3,1.4c3.6,0,6.2-0.5,7.9-1.3c1.5-0.7,2.6-2.3,2.6-4
		c0-1.3-0.8-2.6-2.3-3.8c-1.5-1.2-4.7-2.7-9.4-4.5c-4.9-1.7-9.4-4-13.6-6.9c-3-2.1-5.4-4.9-7.3-8.1c-1.5-3.1-2.3-6.4-2.2-9.7
		c0-4.1,1.1-8,3.2-11.5c2.4-3.8,5.9-6.9,10-8.8c4.5-2.3,10.1-3.3,16.9-3.3c3.9,0,7.9,0.3,11.8,0.9c2.9,0.4,5.6,1.1,8.2,2.2
		c0.4,0.1,0.8,0.5,1,0.9c0.1,0.4,0.2,0.8,0.2,1.1v15.6c0,0.4-0.2,0.8-0.5,1C188.9,107.9,188.5,107.9,188.1,107.7z"/>
	<path id="P" class="st1" d="M56.4,162.3V64.1c0-0.7,0.3-1,1-1c1.6,0,3.1,0,5.3-0.1c2.3-0.1,4.7-0.1,7.3-0.2
		c2.6-0.1,5.3-0.1,8.3-0.2c3-0.1,5.8-0.1,8.7-0.1c7.8,0,14.3,1,19.7,3c4.8,1.6,9.2,4.3,12.8,7.8c3.1,3.1,5.4,6.8,7,10.9
		c1.4,4,2.2,8.1,2.2,12.4c0,8.2-1.9,15-5.7,20.3c-3.8,5.3-9.2,9.4-15.4,11.6c-6.5,2.4-13.6,3.2-21.5,3.2c-2.3,0-3.8,0-4.8-0.1
		c-1-0.1-2.3-0.1-4.1-0.1v30.6c0.1,0.7-0.4,1.2-1,1.3c-0.1,0-0.2,0-0.4,0H57.5C56.8,163.5,56.4,163.1,56.4,162.3z M77.2,81.4v32.1
		c1.3,0.1,2.6,0.2,3.7,0.2H86c3.7,0,7.4-0.6,11-1.7c3.1-0.9,5.7-2.7,7.8-5.1c2-2.4,3-5.6,3-9.8c0.1-3-0.7-5.9-2.2-8.5
		c-1.6-2.5-3.9-4.4-6.7-5.4c-3.5-1.4-7.3-2-11.3-1.9c-2.5,0-4.7,0-6.5,0.1C79.2,81.2,77.9,81.3,77.2,81.4L77.2,81.4z"/>
</g>
</svg>
