<?xml version="1.0" encoding="utf-8"?>
<!-- Generator: Adobe Illustrator 27.5.0, SVG Export Plug-In . SVG Version: 6.00 Build 0)  -->
<svg version="1.1" id="Layer_1" xmlns="http://www.w3.org/2000/svg" xmlns:xlink="http://www.w3.org/1999/xlink" x="0px" y="0px"
	 viewBox="0 0 240 234" style="enable-background:new 0 0 240 234;" xml:space="preserve">
<style type="text/css">
	.st0{fill:#330000;}
	.st1{fill:#FF9A00;}
</style>
<path id="Bg" class="st0" d="M56.2,0h127.6c31,0,56.2,25.2,56.2,56.2v121.6c0,31-25.2,56.2-56.2,56.2H56.2C25.2,234,0,208.8,0,177.8
	V56.2C0,25.2,25.2,0,56.2,0z"/>
<path class="st1" d="M117.1,139.3H80.6l-7.4,23c-0.2,0.9-1,1.5-1.9,1.4H52.9c-1.1,0-1.4-0.6-1.1-1.8l31.5-90.7c0.3-1,0.6-2.1,1-3.2
	c0.4-2.1,0.6-4.2,0.6-6.4c-0.1-0.5,0.3-1,0.8-1.1h25.4c0.8,0,1.2,0.3,1.3,0.8l35.7,100.8c0.3,1.1,0,1.6-1,1.6h-20.5
	c-0.7,0.1-1.4-0.4-1.6-1.1L117.1,139.3z M86.3,119.5h24.9c-0.6-2.1-1.4-4.5-2.3-7c-0.9-2.6-1.8-5.5-2.6-8.4c-1-3-1.9-6-2.8-9
	c-1-3-1.9-5.9-2.6-8.7c-0.8-2.7-1.5-5.3-2.2-7.6h-0.2c-0.9,4.2-2,8.4-3.3,12.6c-1.5,4.7-2.9,9.6-4.5,14.5
	C89.2,110.8,87.8,115.4,86.3,119.5z M169.9,77.7c-3.2,0.1-6.4-1.2-8.7-3.4c-2.3-2.4-3.4-5.7-3.3-9c-0.1-3.3,1.2-6.5,3.5-8.7
	c2.3-2.3,5.5-3.4,8.7-3.4c3.8,0,6.8,1.2,8.9,3.4c2.2,2.3,3.3,5.5,3.2,8.7c0.1,3.3-1.1,6.6-3.4,9C176.6,76.6,173.2,77.9,169.9,77.7
	L169.9,77.7z M158.9,162.6V87.3c0-1,0.4-1.4,1.3-1.4h19.4c0.9,0,1.3,0.5,1.3,1.4v75.4c0,1.1-0.4,1.6-1.3,1.6h-19.2
	C159.4,164.2,158.9,163.6,158.9,162.6z"/>
</svg>
