<?xml version="1.0" encoding="utf-8"?>
<!-- Generator: Adobe Illustrator 27.5.0, SVG Export Plug-In . SVG Version: 6.00 Build 0)  -->
<svg version="1.1" id="Layer_1" xmlns="http://www.w3.org/2000/svg" xmlns:xlink="http://www.w3.org/1999/xlink" x="0px" y="0px"
	 viewBox="0 0 240 234" style="enable-background:new 0 0 240 234;" xml:space="preserve">
<style type="text/css">
	.st0{fill:#2B2B34;}
	.st1{fill:#00BCFF;}
	.st2{fill:#FF7361;}
	.st3{fill:#B659FF;}
	.st4{fill:#FF4D12;}
	.st5{fill:#00CF7F;}
</style>
<path id="Bg" class="st0" d="M56.2,0h127.6c31,0,56.2,25.2,56.2,56.2v121.6c0,31-25.2,56.2-56.2,56.2H56.2C25.2,234,0,208.8,0,177.8
	V56.2C0,25.2,25.2,0,56.2,0z"/>
<g>
	<circle class="st1" cx="148.4" cy="117" r="28.4"/>
	<path class="st2" d="M176.5,60.2c0,15.7-12.7,28.4-28.4,28.4c-7.4,0-28.4,0-28.4,0V31.8c0,0,20.3,0,28.4,0
		C163.7,31.8,176.5,44.5,176.5,60.2z"/>
	<path class="st3" d="M120,145.4c0,0-20.3,0-28.4,0c-15.7,0-28.4-12.7-28.4-28.4s12.7-28.4,28.4-28.4c7.8,0,28.4,0,28.4,0V145.4z"/>
	<path class="st4" d="M120,88.6c0,0-20.6,0-28.4,0c-15.7,0-28.4-12.7-28.4-28.4s12.7-28.4,28.4-28.4c8.6,0,28.4,0,28.4,0V88.6z"/>
	<path class="st5" d="M120,173.8c0,15.7-12.7,28.4-28.4,28.4s-28.4-12.7-28.4-28.4s12.7-28.4,28.4-28.4c7.8,0,28.4,0,28.4,0
		S120,165.9,120,173.8z"/>
</g>
</svg>
