<?xml version="1.0" encoding="utf-8"?>
<!-- Generator: Adobe Illustrator 27.5.0, SVG Export Plug-In . SVG Version: 6.00 Build 0)  -->
<svg version="1.1" id="Layer_1" xmlns="http://www.w3.org/2000/svg" xmlns:xlink="http://www.w3.org/1999/xlink" x="0px" y="0px"
	 viewBox="0 0 240 234" style="enable-background:new 0 0 240 234;" xml:space="preserve">
<style type="text/css">
	.st0{fill:#663399;}
	.st1{fill:#FFFFFF;}
</style>
<path id="Bg" class="st0" d="M56.2,0h127.6c31,0,56.2,25.2,56.2,56.2v121.6c0,31-25.2,56.2-56.2,56.2H56.2C25.2,234,0,208.8,0,177.8
	V56.2C0,25.2,25.2,0,56.2,0z"/>
<path class="st1" d="M65.7,168.2C51.5,154,44.1,135,44.1,116.8l73.7,73C98.8,189.1,79.9,182.3,65.7,168.2z M134.7,187.8L46.1,99.2
	c7.4-33.1,37.2-58.1,72.3-58.1c25,0,46.6,12.2,60.1,30.4l-10.1,8.8c-11.5-15.5-29.7-25.7-50-25.7c-26.4,0-48.7,16.9-57.4,40.5
	l77.7,77.7c19.6-6.8,34.5-23.7,39.2-43.9h-32.4v-13.5h47.3C192.8,150.6,167.8,180.3,134.7,187.8z"/>
</svg>
