<?xml version="1.0" encoding="utf-8"?>
<!-- Generator: Adobe Illustrator 27.5.0, SVG Export Plug-In . SVG Version: 6.00 Build 0)  -->
<svg version="1.1" id="Layer_1" xmlns="http://www.w3.org/2000/svg" xmlns:xlink="http://www.w3.org/1999/xlink" x="0px" y="0px"
	 viewBox="0 0 377.23 368" style="enable-background:new 0 0 377.23 368;" xml:space="preserve">
<g>
	<path d="M259.76,0l-0.14,1.71l-10.62,132.27l-3.71,44.62c-1.63,20.4-6.17,34.3-13.6,41.7s-19.35,11.1-35.75,11.1
		c-7.2,0-15.27-0.9-24.21-2.7c-8.36-1.68-15.7-3.8-22.03-6.36l-7.69,92.26c7.96,3.57,17.91,6.64,29.82,9.2
		c13.01,2.8,25.32,4.2,36.92,4.2c23.6,0,43.69-2.7,60.28-8.1c16.59-5.4,30.43-13.9,41.54-25.5c11.11-11.6,19.67-26.5,25.67-44.7
		c6-18.2,10.02-40.1,12.06-65.7L363.1,0H259.76z"/>
	<path d="M117.47,368l0.14-1.71l10.62-132.27l3.71-44.62c1.63-20.4,6.17-34.3,13.6-41.7s19.35-11.1,35.75-11.1
		c7.2,0,15.27,0.9,24.21,2.7c8.36,1.68,15.7,3.8,22.03,6.36l7.69-92.26c-7.96-3.57-17.91-6.64-29.82-9.2
		c-13.01-2.8-25.32-4.2-36.92-4.2c-23.6,0-43.69,2.7-60.28,8.1C91.6,53.5,77.75,62,66.64,73.6c-11.11,11.6-19.67,26.5-25.67,44.7
		c-6,18.2-10.02,40.1-12.06,65.7L14.13,368H117.47z"/>
</g>
</svg>
