<?xml version="1.0" encoding="utf-8"?>
<!-- Generator: Adobe Illustrator 27.5.0, SVG Export Plug-In . SVG Version: 6.00 Build 0)  -->
<svg version="1.1" id="Layer_1" xmlns="http://www.w3.org/2000/svg" xmlns:xlink="http://www.w3.org/1999/xlink" x="0px" y="0px"
	 viewBox="0 0 240 234" style="enable-background:new 0 0 240 234;" xml:space="preserve">
<style type="text/css">
	.st0{fill:#151E35;}
	.st1{fill:#3DBBF9;}
</style>
<path id="Bg" class="st0" d="M56.2,0h127.6c31,0,56.2,25.2,56.2,56.2v121.6c0,31-25.2,56.2-56.2,56.2H56.2C25.2,234,0,208.8,0,177.8
	V56.2C0,25.2,25.2,0,56.2,0z"/>
<path class="st1" d="M118.3,69.6c-27.8,0.9-36,20.7-37.9,31.5c2.5-4,10.2-12.7,21.7-12.7c13.3,0,23.5,14.9,29.7,19.5
	c7.5,5.6,22.6,13.1,42.5,7.1c15.8-4.8,23.2-21.6,24.8-29.6c-7.7,10.4-19.3,16.7-33.6,9.3C155.4,89.6,148,68.7,118.3,69.6z M79,116.8
	c-27.8,0.9-36,20.7-37.9,31.5c2.5-4,10.2-12.7,21.7-12.7c13.3,0,23.5,14.9,29.7,19.5c7.5,5.6,22.6,13.1,42.5,7.1
	c15.8-4.8,23.2-21.6,24.8-29.6c-7.7,10.4-19.3,16.7-33.6,9.3C116.1,136.8,108.7,115.9,79,116.8z"/>
</svg>
