<?xml version="1.0" encoding="UTF-8"?><svg id="Layer_2" xmlns="http://www.w3.org/2000/svg" viewBox="0 0 1840.81 2063.08"><defs><style>.cls-1{stroke:#492f1d;stroke-miterlimit:10;stroke-width:4.88px;}.cls-1,.cls-2{fill:#68442a;}.cls-3{fill:#edb89d;}.cls-4{fill:#9d7a62;}.cls-5{fill:#8c8c8c;}.cls-6{fill:#d3d3d3;}.cls-7{fill:#3f2614;}.cls-8{fill:#967050;}.cls-9{fill:#47423a;}.cls-10{fill:#5c5c5c;}.cls-11{fill:#3a3631;}.cls-12{fill:#5b3b1e;}.cls-13,.cls-14{fill:#84644e;}.cls-15{fill:#60432f;}.cls-16{fill:#77563f;}.cls-14,.cls-17{opacity:.2;}</style></defs><g id="Layer_1-2"><g id="shadow" class="cls-17"><ellipse class="cls-13" cx="941.47" cy="1963.88" rx="843.75" ry="99.2"/><ellipse cx="941.47" cy="1963.88" rx="843.75" ry="99.2"/></g><path class="cls-3" d="m765.86,216.17c2.18,1.99-23-22.4-11.15,48.63,10.85,65.06,26.91,41.78,26.91,41.78,0,0,2.64,45.67,14.13,68.61,9.75,24.93,30.88,39.36,37.37,39.08l-22.24,137.99s83.71,61.46,85.02,58.2c1.31-3.27,97.43-91.56,97.43-91.56l-13.59-108.95s28.12-24.52,33.99-39.55c5.69-14.57,13.31-76.09,13.31-76.09,0,0,13.91,51.36,28.74-28.51,13.45-72.45-15.43-45.33-15.43-45.33,0,0,10.23-183.79-137.2-183.79s-142.51,174.65-137.28,179.49Z"/><path class="cls-14" d="m835.41,422.52s26.78,24.86,36.19,27.63c42.09,12.41,71.11-6.06,71.11-6.06l37.03-34.14,13.5,108.91-43.55,40.24s-17.86-63.31-67.57-84.24c-49.71-20.94-55.42-12.3-55.42-12.3l8.72-40.04Z"/><path class="cls-7" d="m899.19,611.79s.04.07.06.11h0c.01-.06.01-.13,0-.19l-.06.08Zm97.75-93.5l-15.73-106.65c-2.16,1.54-4.38,3.02-6.63,4.45l14.97,101.36c-54.58,50.14-86.35,79.92-94.75,88.9-9.59-4.92-52.44-35.57-80-55.76l21.35-131.46c-2.37-.56-4.71-1.16-7.03-1.81l-21.81,134.27c-.1.65-.03,1.32.22,1.93.26.61.67,1.15,1.2,1.54.22.14,20.5,15.04,41.02,29.6,36.79,26.12,43.34,29.44,45.91,29.44.38.02.76-.02,1.13-.12.93-.31,1.72-.95,2.22-1.8.06-.08.14-.17.24-.28h0c5.31-6.12,60.16-56.96,96.56-90.47.43-.39.76-.88.96-1.43.19-.55.25-1.13.17-1.71Zm-103.31,89.37c-.4.42-.76.88-1.06,1.38.23-.57.61-1.07,1.09-1.44l-.03.06Z"/><path class="cls-3" d="m1012.46,1460.65s-241.81,85.18-228.61,129.1c13.19,43.91,261.33-52.07,261.33-52.07l-32.72-77.03Z"/><path class="cls-7" d="m812.32,1604.74c-9.5,0-17.29-1.17-22.71-3.83-2.17-.94-4.11-2.33-5.7-4.07-1.59-1.75-2.78-3.82-3.51-6.07-6.16-20.5,30.27-48.47,111.31-85.33,58.27-26.53,118.95-47.97,119.54-48.18.86-.31,1.81-.28,2.65.09.83.37,1.5,1.04,1.86,1.88l32.73,76.96c.18.45.28.92.28,1.41s-.09.95-.28,1.4c-.19.44-.46.84-.81,1.18-.34.33-.75.6-1.2.77-7.6,2.94-165.58,63.79-234.16,63.79Zm198.14-139.58c-92.29,32.78-231.96,94.25-223.18,123.54.45,1.3,1.17,2.48,2.12,3.47.95.99,2.1,1.77,3.37,2.28,38.8,18.99,220.21-48.47,247.75-58.89l-30.06-70.4Z"/><path class="cls-12" d="m838.98,1534.04s-86.33-6.17-189.65,16.57c-100.68,22.16-198.91,61.29-197.48,87.48,1.44,26.2,126.87,53.23,219.02,37.11,162.28-28.36,194.93-81.18,194.93-81.18,0,0-70.17,24.49-81.97-4.27-11.79-28.76,55.15-55.71,55.15-55.71Z"/><path class="cls-7" d="m610.75,1683.57c-65.04,0-131.73-14.37-154.03-32.05-5.39-4.24-8.17-8.69-8.42-13.23-1.69-30.23,101.92-69.55,200.26-91.18,102.63-22.6,189.81-16.71,190.69-16.64.81.06,1.57.39,2.17.94.6.55.99,1.28,1.11,2.08.13.81-.02,1.63-.42,2.33-.4.71-1.03,1.26-1.78,1.56-.45.18-44.04,17.95-52.84,38.78-.9,1.9-1.39,3.97-1.45,6.07-.05,2.11.33,4.2,1.13,6.15,8.62,21.01,58.85,8.74,77.46,2.25.71-.25,1.46-.27,2.18-.07.71.21,1.34.63,1.81,1.21.46.58.74,1.29.78,2.03.05.74-.14,1.47-.53,2.1-1.36,2.21-35.37,54.51-197.35,82.84-20.08,3.34-40.41,4.95-60.77,4.83h0Zm199.61-146.71c-53.87.08-107.59,5.85-160.26,17.21-104.89,23.09-195.84,62.25-194.64,83.79.13,2.37,2.12,5.15,5.73,8.01,25.29,20.1,126.49,40.21,209.09,25.76,117.79-20.59,166.73-54.38,184.16-70.47-21.55,5.78-64.15,13.72-73.91-10.1-1.16-2.83-1.73-5.86-1.67-8.91.06-3.05.74-6.05,2.01-8.83,6.59-15.6,28.45-28.89,43.08-36.3-3.87-.05-8.42-.16-13.59-.16Z"/><path class="cls-7" d="m747.82,1596.84c5.51-10.58,20.13-40.46,13.12-50.72-1.43-2.1-4.29-4.47-9.89-3.75-2.21.25-4.34.98-6.22,2.16-1.89,1.17-3.49,2.75-4.69,4.63-9.06,13.55-2,42.99-.49,48.78v.02c-.75,8.24-2.86,40.39,8.62,47.98,1.67,1.15,3.64,1.78,5.67,1.79,2.51-.09,4.96-.82,7.11-2.12,2.27-1.1,4.24-2.75,5.71-4.8,1.47-2.06,2.4-4.45,2.71-6.96,1.55-13.67-15.27-30.99-21.65-37.01Zm-1.71-43.86c.64-1.01,1.5-1.85,2.51-2.48,1.02-.62,2.16-1,3.35-1.11.34-.03.69-.03,1.04,0v.03c1.51,0,1.86.51,2.01.56,2.92,4.29-2.64,21.02-10.36,37-2.01-11.18-3.38-26.82,1.45-34Zm16.23,80.17c-.18,1.36-.71,2.65-1.54,3.74-.82,1.09-1.92,1.95-3.18,2.49-3.59,1.91-4.92.97-5.38.67-5.16-3.41-6.47-20.25-5.89-34.47,7.3,7.58,16.87,19.53,15.99,27.57Z"/><path class="cls-3" d="m825.34,1444.04s235.03,102.33,218.69,145.26c-16.33,42.92-256.9-70.86-256.9-70.86l38.21-74.4Z"/><path class="cls-7" d="m1021.5,1602.46c-64.25,0-228.26-77.2-235.89-80.79-.42-.21-.8-.51-1.11-.86-.3-.36-.54-.77-.69-1.22-.15-.46-.21-.94-.17-1.43.03-.48.17-.95.39-1.37l38.18-74.38c.42-.82,1.13-1.44,1.99-1.75s1.81-.28,2.65.08c.59.27,59.54,26.01,115.75,56.69,78.19,42.66,112.49,73.12,104.86,93.14-.88,2.19-2.22,4.17-3.93,5.8-1.71,1.63-3.74,2.87-5.98,3.64-5.15,1.81-10.59,2.64-16.05,2.45Zm-229.46-85.71c26.62,12.37,202.72,92.72,242.77,76.6,1.31-.42,2.51-1.12,3.52-2.05,1.02-.93,1.83-2.07,2.37-3.33,10.87-28.6-124-100-213.64-139.35l-35.02,68.13Z"/><path class="cls-12" d="m1371.65,1661.47c-3.32,26.03-130.37,43.94-221.12,21.22-157.77-39.5-187.82-93.64-188.5-95.03,1.34.58,59.99,25.6,78.75,6.27,1.33-1.37,2.44-2.94,3.29-4.65,10.77-21.54-25.51-45.29-42.57-54.99-1.79-1.04-3.35-1.9-4.65-2.58-2.35-1.28-3.75-1.96-3.75-1.96h5.1c61.96,2.46,123.39,12.58,182.86,30.12,98.78,29.46,193.93,75.58,190.59,101.6Z"/><path class="cls-8" d="m1371.65,1661.47s-75.64-44.49-142.78-72.01c-27.59-11.31-90.33-28.04-144.34-39.23l-9.87-2.03c-33.21-6.73-61.47-11.85-73.19-13.91l-5.8-1.02,1.15-1.56,1.35-1.8c61.96,2.46,123.38,12.58,182.86,30.12,98.81,29.3,193.96,75.42,190.62,101.44Z"/><path class="cls-7" d="m1243.7,1696.63c-31.9,0-65.15-3.16-94.03-10.39-159.48-39.93-189.65-94.54-190.86-96.84-.34-.65-.47-1.4-.38-2.13.1-.73.42-1.42.92-1.96.5-.55,1.16-.92,1.88-1.08.73-.16,1.48-.09,2.16.2,20.04,8.49,61.38,20.88,74.79,7.07,1.07-1.11,1.96-2.37,2.64-3.75,9.68-19.42-29.03-43.39-41.13-50.27-1.79-1.04-3.28-1.79-4.54-2.53-2.26-1.22-3.59-1.88-3.59-1.9-.73-.35-1.32-.95-1.68-1.68-.35-.74-.44-1.57-.25-2.36.18-.79.63-1.5,1.27-2.01.63-.5,1.42-.77,2.24-.77h5.19c62.26,2.5,123.97,12.7,183.72,30.37,96.51,28.73,197.01,75.4,193.17,105.4-.57,4.53-3.73,8.76-9.35,12.57-19.45,13.21-68.96,22.06-122.17,22.06Zm-270.96-100.96c16.16,17.27,62.39,54.48,178.67,83.6,81.34,20.38,183.72,7.6,210.4-10.62,3.81-2.59,5.98-5.21,6.28-7.58,2.75-21.4-85.15-67-188.08-97.61-56.08-16.48-113.88-26.41-172.24-29.58,21.35,12.8,50.41,35.15,39.5,57.07-1.02,2.04-2.34,3.91-3.92,5.54-15.04,15.43-51.25,5.82-70.61-.89v.07Z"/><path class="cls-7" d="m1090.57,1551.94c-1.06-1.96-2.55-3.65-4.35-4.96-1.8-1.31-3.88-2.2-6.06-2.6-5.5-1.11-8.55,1.03-10.13,3.02-7.75,9.77,4.73,40.75,9.47,51.61-6.75,5.51-24.87,21.61-24.32,35.42.13,2.52.9,4.97,2.22,7.12,1.32,2.15,3.15,3.94,5.34,5.2,2.27,1.58,4.95,2.48,7.72,2.56,1.76,0,3.48-.44,5.01-1.31,12.04-6.76,12.21-39.21,12.04-47.31,1.88-5.54,11.14-34.54,3.06-48.75Zm-14.85-.11c.14-.18.49-.61,1.67-.61.48.02.96.09,1.42.22,1.18.2,2.3.67,3.27,1.38.97.71,1.76,1.63,2.31,2.69,4.38,7.54,1.8,23-1,34.02-6.56-16.53-10.88-33.64-7.67-37.7Zm-3.75,89.91c-.56.28-2.05,1.11-5.39-1.03-1.21-.63-2.24-1.57-2.99-2.72-.74-1.15-1.18-2.48-1.26-3.85-.31-8.08,10.12-19.31,17.95-26.33-.43,14.2-2.89,30.91-8.31,33.93Z"/><path class="cls-4" d="m1496.7,1375.9c-55.86,27.23-356.12,169.88-356.12,169.88,0,0-13.43.43-42.22-5.17-28.8-5.6-56-9.66-56-9.66l-44.2-1.11-41.7-21.04-8.54-4.31-16.68-26.43,19.75-11.23,56.62-32.32s-34.11,2.75-62.69,2.75-83.99-10.28-83.99-10.28l29.48,23.89s-1.79,22.74-14.97,53.15c-1.63,3.79-3.46,7.53-5.38,11.21-9.56,17-21,32.88-34.11,47.32,0,0-610.39-247.98-667.64-275.23-57.25-27.25-225.84-98.97-141.43-191.34,86.17-94.25,240.89-45.76,390.77-19.85,149.89,25.9,354.26,91.29,354.26,91.29l424.18-23.97s579.58-187.23,631.93-80.3c2.35,4.77,4.3,9.73,5.81,14.83h0c40.65,137.96-283.18,271.6-337.13,297.92Z"/><path class="cls-15" d="m1437.77,1169.25l-430.22,265.28s-40.41,3.73-71.81,2.62c-31.4-1.11-80.58-12.28-80.58-12.28l-493.95-253.02s265.59,118.59,297.64,123.28c32.04,4.68,150.38,47.7,193.49,52.47,43.1,4.78,96.54-7.95,129.97-7.95s123.87-12.75,158.27-30.27c34.4-17.52,71.04-38.22,99.71-50.95,28.67-12.72,197.48-89.18,197.48-89.18Z"/><path class="cls-7" d="m855.12,1428.41c-.57,0-1.13-.14-1.63-.4l-493.91-252.96c-.48-.27-37.18-20.69-61.94-22.95-.95-.08-1.82-.54-2.43-1.27-.61-.73-.9-1.68-.82-2.62.09-.95.54-1.82,1.28-2.43.73-.61,1.67-.91,2.62-.82,26.28,2.39,63.12,22.89,64.63,23.77l493.8,252.89c.72.37,1.29.97,1.63,1.7.33.74.41,1.56.22,2.35-.19.78-.64,1.48-1.28,1.98-.63.49-1.42.76-2.22.76h.05Z"/><path class="cls-7" d="m361.22,1175.44c-.82,0-1.61-.28-2.24-.79-4.43-3.59-43.28-35.22-45.76-51.4-.1-.92.15-1.85.71-2.58.56-.74,1.39-1.23,2.31-1.37.92-.14,1.85.07,2.61.61.76.53,1.28,1.34,1.46,2.25,1.56,10.1,27.3,34.11,43.08,46.91.57.46.99,1.1,1.19,1.81.2.71.18,1.46-.07,2.16-.24.7-.7,1.3-1.3,1.73-.6.43-1.32.67-2.06.67h.07Z"/><path class="cls-7" d="m1007.55,1438.12c-.62-.01-1.23-.17-1.77-.49-.54-.31-.98-.76-1.3-1.3-.49-.82-.65-1.79-.43-2.72.23-.92.81-1.72,1.62-2.22l430.1-265.18c2.66-1.9,39.07-27.57,65.15-29.73.96-.07,1.9.23,2.63.85.73.61,1.18,1.5,1.26,2.45.08.95-.22,1.9-.84,2.62-.62.73-1.5,1.19-2.45,1.27-24.55,2.02-61.29,28.22-61.67,28.47l-.2.14-430.21,265.23c-.56.38-1.21.59-1.89.61Z"/><path class="cls-7" d="m1427.34,1179.27c-.43,0-.86-.08-1.26-.24-.44-.16-.85-.42-1.19-.74-.35-.32-.63-.71-.82-1.14-.2-.43-.31-.89-.32-1.37-.02-.47.06-.94.23-1.38.68-1.8,17.04-44.88,35.64-54.86.83-.43,1.81-.51,2.71-.23.89.28,1.64.91,2.09,1.74.44.83.54,1.8.27,2.7-.27.91-.88,1.67-1.7,2.12-13.45,7.19-27.86,39.28-32.31,51.06-.26.68-.71,1.27-1.31,1.69-.6.41-1.31.64-2.03.65Z"/><path class="cls-13" d="m1496.71,1375.9c-55.87,27.23-356.13,169.88-356.13,169.88,0,0-13.43.43-42.22-5.17-28.8-5.6-56-9.66-56-9.66l-44.19-1.11-50.27-25.35s206.81-36.68,248.08-60.46c41.28-23.79,97.72-70.29,140.03-92.89,42.32-22.6,173.51-63.46,208.77-80.39,35.26-16.93,87.45-57.84,108.6-71.95,21.14-14.11,102.97-37.08,122.72-50.27,19.75-13.2,56.68-69.14,57.61-70.54,40.77,137.95-283.06,271.59-337,297.91Z"/><path class="cls-16" d="m869.9,1515.32c-9.56,17-21,32.87-34.11,47.32,0,0-610.39-247.98-667.64-275.23-57.25-27.25-225.84-98.97-141.43-191.34,0,0-6.86,52.55,17.11,75.89,53.41,51.92,211.61,84.79,246.86,101.7,35.26,16.91,133.99,69.11,167.86,90.28,33.86,21.17,249.68,101.58,276.83,117.09,27.14,15.51,134.52,34.29,134.52,34.29Z"/><path class="cls-15" d="m956.46,1508.8l-8.54-4.31-16.68-26.43,19.69-11.24,5.53,41.98Z"/><path class="cls-7" d="m835.86,1566.14c-.46,0-.92-.09-1.35-.27-6.1-2.48-611.17-248.33-667.83-275.32l-9.95-4.66c-50.27-23.58-143.82-67.47-155.54-126.57-4.4-22.15,3.32-44.27,22.94-65.76,33.84-37.03,81.36-55.65,145.27-56.69,56.69-1.01,118.68,11,184.34,23.69,21.13,4.1,43.09,8.32,64.43,12.03,144.28,24.92,341.36,87.16,354.11,91.2l423.05-23.89c8.97-2.89,150.47-48.01,296.21-80.2,202.86-44.77,317.04-44.16,339.57,1.8,11.58,23.61,12.78,48.63,3.59,74.38-37.7,105.54-239.97,198.64-316.16,233.66-8.69,4.01-15.56,7.19-20.34,9.5-55.24,26.93-353.14,168.5-356.14,169.94-.45.2-.94.32-1.43.34-.56,0-14.17.38-43.09-5.26-27.05-5.28-53-9.21-55.65-9.6l-43.97-1.1c-.53-.01-1.05-.14-1.52-.38l-50.27-25.36c-.58-.29-1.07-.73-1.42-1.28l-16.66-26.42c-.26-.41-.43-.87-.5-1.35-.08-.48-.06-.97.06-1.44.12-.46.33-.91.62-1.29.29-.39.66-.71,1.08-.95l62.71-35.91c-12.57.78-30.92,1.67-47.31,1.67-19.94,0-54.74-5.79-74.9-9.48l22.53,16.63c.5.36.89.84,1.14,1.4.26.55.37,1.17.32,1.78,0,.95-2.07,23.68-15.28,54.27-13.21,30.59-39.1,58.45-40.18,59.62-.31.37-.69.67-1.12.89-.42.22-.89.35-1.37.38h0ZM175.7,1043.9c-58.06,0-108.76,13.49-146.26,54.51-17.95,19.75-25.13,39.73-21.2,59.51,11.02,55.55,105.92,100.07,151.55,121.47l9.98,4.68c54.68,26.05,623.72,257.39,665.12,274.21,5.92-6.66,26.33-30.52,37.2-55.65,7.05-15.96,11.92-32.8,14.48-50.06l-33.57-24.77c-.65-.49-1.13-1.18-1.34-1.97-.2-.79-.14-1.62.19-2.37s.91-1.36,1.63-1.74c.73-.37,1.56-.49,2.36-.33.61.13,61.04,12.32,89.02,12.32s62.07-2.7,62.41-2.73c.81-.07,1.62.15,2.3.61.67.45,1.17,1.13,1.41,1.91.24.78.21,1.62-.09,2.38-.3.75-.85,1.39-1.56,1.79l-73.05,41.74,14.13,22.39,48.65,24.54,43.39,1.1h.44c.26,0,27.59,4.11,56.15,9.67,24.33,4.76,37.7,5.12,40.72,5.14,16.44-7.81,301.49-143.26,355.45-169.56,4.85-2.36,11.75-5.53,20.49-9.55,75.4-34.71,275.8-126.87,312.37-229.58,8.49-23.84,7.38-46.98-3.3-68.79-20.59-42.07-135.24-41.3-331.58,1.99-149.55,33.01-294.57,79.67-296,80.16-.3.08-.6.14-.9.16l-424.18,23.96c-.45.03-.89-.04-1.31-.18-2.03-.64-205.86-65.61-353.77-91.16-21.54-3.71-43.41-7.95-64.63-12.04-62.15-12.07-122.63-23.76-176.71-23.76h0Z"/><path class="cls-9" d="m1409.22,711.41s-33.25,52.26-58.99,76.54c-21.4,19.74-45.18,36.72-70.79,50.58-21.53-10.5-42.13-22.79-61.59-36.75-27.15-20.04-50.27-46-56.48-44.02-12.85,4.07-16.16,151.45-16.16,151.45h-490.1s-2.15-126.57-5.38-134.23c-3.24-7.67-21.44,23.76-40.76,40.91-19.31,17.14-63.28,54.7-63.28,54.7,0,0-43.96-23.59-63.28-43.97-19.32-20.37-68.63-70.78-75.08-81.02-6.45-10.23,187.75-202.12,217.78-220.36,30.04-18.24,102.96-23.59,102.96-23.59,0,0-15.03-22.55,31.45-33.25,46.48-10.7,67.22,12.86,67.22,12.86,0,0,20.39,49.33,28.4,64.34,8,15.01,47.21,58.99,47.21,58.99,0,0,37.02-67.56,58.46-101.88,21.43-34.33,45.04-54.7,73.6-53.64,7.81,0,15.39,2.66,21.5,7.53,6.11,4.86,10.39,11.66,12.14,19.27,0,0,95.47,12.85,113.71,24.65,18.24,11.79,227.46,210.89,227.46,210.89Z"/><path class="cls-11" d="m1293.99,829.32s-37.42-15.84-66.43-37.97c-35.1-26.8-63.39-60.39-70.01-54.76-12.17,10.31-42.16,78.71-43.09,104.02-.93,25.31,4.69,34.45,0,51.52l-4.67,17.08h35.53s-.68-145.27,16.16-151.45c8.08-2.96,30.77,24.49,57.3,44.59,19.02,14.03,39.37,26.15,60.77,36.18l14.44-9.21Z"/><path class="cls-11" d="m717.71,909.21h-62.58s-2.15-126.57-5.39-134.23c0,0,20.45-51.55,19.18-41.51-1.28,10.04,8.97,1.53,20.07,1.38,11.09-.14-12.37,35.05-12.37,35.05,0,0,3.82,33.17,9.78,48.57,5.96,15.41,31.31,90.74,31.31,90.74Z"/><path class="cls-11" d="m905.82,619.49s85.04-77.85,106.2-97.5c21.17-19.66,56.03-46.12,56.03-46.12l14.37,2.06s-21.67,23.48-38.1,35.62c-10.47,7.74-39.21,29.32-49.94,39.39-9.28,8.7-35.3,30.23-41.29,34.77-6,4.54-47.27,31.78-47.27,31.78Z"/><path class="cls-7" d="m1145.29,912.8h-490.11c-.95,0-1.86-.38-2.53-1.06-.68-.67-1.06-1.58-1.06-2.53-.75-44.89-2.64-116.05-4.66-130.66-4.18,4.3-8.1,8.83-11.75,13.59-6.75,8.36-15.16,18.78-23.75,26.39-19.1,16.98-62.83,54.36-63.31,54.73-.55.48-1.23.78-1.95.86-.73.08-1.45-.06-2.09-.41-1.8-.98-44.69-24.11-64.18-44.68-4.15-4.38-9.7-10.14-15.91-16.61-29.73-30.98-54.75-57.25-59.6-64.95-.36-.6-.6-1.27-.68-1.97-.09-.7-.03-1.41.16-2.09,4.97-21.18,190.83-203.93,219.43-221.29,26.18-15.91,82.58-22.12,99.64-23.68-1.13-4.01-.92-8.27.61-12.14,3.87-9.75,15.72-16.97,35.22-21.54,48.02-11.08,69.82,12.96,70.71,13.98.27.3.48.64.63,1.01.2.48,20.41,49.33,28.24,64.02,6.36,11.93,33.73,43.51,43.37,54.48,8.66-15.67,38.05-68.68,56.09-97.59,23.93-38.25,49.01-56.37,76.87-55.31,25.55.97,34,20.13,36.26,27.18,15.17,2.1,95.55,13.7,112.82,24.86,18.31,11.85,219.45,203.14,227.99,211.27.61.57.99,1.34,1.09,2.16.1.83-.08,1.66-.53,2.36-1.36,2.16-33.79,52.93-59.55,77.2-33.03,31.13-71.23,50.95-71.61,51.14-.5.26-1.05.39-1.62.39s-1.11-.13-1.61-.39c-.36-.16-36.46-18.07-64.94-39.11-11.9-8.8-22.47-18.3-30.98-25.93-7.69-6.91-16.37-14.7-19.41-15.42-6.69,7.54-12.19,80.59-13.66,148,.02.49-.06.98-.24,1.43-.17.46-.44.87-.78,1.22-.34.35-.75.63-1.2.82-.45.18-.94.27-1.42.27Zm-486.62-7.18h483.12c.26-10.11,1.18-40.47,3.14-70.85,4.99-77.19,11.74-79.29,15.36-80.44,5.39-1.69,11.58,3.59,26.45,17.02,8.38,7.52,18.83,16.89,30.52,25.51,24.54,18.13,54.9,33.91,62.2,37.7,7.49-4.06,39.91-22.3,68.37-49.14,21.95-20.71,49.9-62.83,56.83-73.39-22.24-21.13-208.03-197.47-224.8-208.39-14.36-9.32-85.9-20.55-112.22-24.11-.75-.1-1.44-.43-1.99-.95-.55-.52-.92-1.2-1.06-1.94-.18-.91-4.83-22.94-30.18-23.91-25.35-.97-47.75,15.56-70.5,51.95-21.15,33.84-57.98,101.04-58.34,101.72-.28.51-.67.94-1.15,1.26-.48.32-1.03.52-1.6.59-.57.06-1.15-.01-1.69-.22-.53-.2-1.02-.53-1.4-.96-1.61-1.8-39.6-44.49-47.72-59.71-7.61-14.26-25.81-58.08-28.29-64.06-2.94-2.98-22.46-20.77-63.33-11.33-21.15,4.87-28.06,11.94-30.13,17.02-.68,1.75-.96,3.62-.81,5.49.16,1.87.73,3.67,1.69,5.28.35.53.55,1.14.58,1.77.04.63-.1,1.26-.38,1.82-.28.56-.69,1.04-1.21,1.39-.52.35-1.11.56-1.74.61-.71,0-72.42,5.51-101.37,23.08-31.24,18.96-209.17,197.3-216.01,216.22,6.39,8.98,37.42,41.29,58.17,62.98,6.21,6.46,11.76,12.26,15.92,16.64,16.3,17.2,51.24,37.13,60.23,42.12,8.62-7.38,44.56-38.13,61.35-53.05,8.13-7.18,16.33-17.38,22.92-25.53,10.41-12.89,14.81-18.11,19.44-17.43.92.14,1.78.53,2.5,1.12.72.58,1.27,1.35,1.6,2.22,3.1,7.34,5.04,104.41,5.53,131.9Z"/><path class="cls-7" d="m902.89,624.23c-.9,0-1.78-.22-2.57-.65-.25.12-.5.22-.77.3-6.84,2.03-23.34-10.03-69.74-47.44-12.35-9.98-24.02-19.41-32.73-25.85-29.98-22.32-70.39-45.6-70.79-45.84-.82-.47-1.43-1.26-1.67-2.18-.25-.92-.12-1.9.35-2.73.48-.82,1.26-1.43,2.19-1.67.92-.25,1.9-.12,2.72.35.42.24,41.17,23.74,71.51,46.3,8.81,6.54,20.54,16,32.94,26.03,21.54,17.4,53.53,43.22,62.26,45.87.13-.41.23-.82.34-1.22.14-4.02.81-8.01,1.99-11.87.23-.82.75-1.54,1.46-2.01.71-.48,1.57-.69,2.42-.59.85.1,1.64.51,2.22,1.14.58.63.91,1.45.94,2.31-.09,3.99-.69,7.95-1.79,11.79,6.01-4.25,35.07-31.49,60.76-55.65,18.89-17.68,36.72-34.41,44.74-41.42,19.25-16.76,55.8-45.88,56.18-46.17.36-.33.79-.58,1.25-.74s.96-.22,1.45-.18c.49.04.96.18,1.39.41.44.23.82.54,1.13.93.3.38.53.82.66,1.3.12.47.15.97.08,1.45-.07.49-.24.95-.49,1.37-.26.42-.6.78-1,1.06-.36.31-36.81,29.34-55.93,46-7.93,6.91-25.7,23.59-44.55,41.29-27.65,25.92-56.27,52.72-62.03,56.55-1.43,1.06-3.14,1.67-4.92,1.76h0Z"/><path class="cls-7" d="m902.35,787.09c-.95,0-1.86-.38-2.53-1.05-.68-.67-1.06-1.59-1.06-2.54v-171.53c0-.96.38-1.87,1.06-2.54.67-.68,1.58-1.06,2.53-1.06s1.87.38,2.54,1.06c.68.67,1.05,1.58,1.05,2.54v171.53c0,.95-.37,1.87-1.05,2.54-.67.67-1.58,1.05-2.54,1.05Z"/><path class="cls-7" d="m937.22,664.25c-2.84,0-5.62-.85-7.98-2.43-2.36-1.57-4.2-3.82-5.29-6.44-1.09-2.62-1.37-5.51-.82-8.3.56-2.78,1.92-5.34,3.93-7.35,2.01-2.01,4.57-3.38,7.36-3.93,2.78-.56,5.67-.27,8.29.81,2.63,1.09,4.87,2.93,6.45,5.29,1.58,2.37,2.42,5.14,2.42,7.98,0,3.81-1.51,7.47-4.21,10.16-2.69,2.69-6.34,4.21-10.15,4.21Zm0-21.37c-1.42,0-2.81.42-3.99,1.21-1.18.79-2.1,1.91-2.65,3.22-.54,1.32-.68,2.76-.41,4.15.28,1.4.97,2.68,1.97,3.68s2.28,1.69,3.68,1.97c1.39.27,2.83.13,4.15-.41,1.31-.55,2.43-1.47,3.22-2.65.79-1.18,1.21-2.57,1.21-3.99.01-.94-.18-1.88-.53-2.76-.36-.88-.89-1.68-1.56-2.35-.66-.67-1.46-1.21-2.33-1.57-.88-.36-1.82-.55-2.76-.55v.05Z"/><path class="cls-7" d="m937.22,744.83c-2.84,0-5.62-.84-7.98-2.42-2.36-1.58-4.2-3.82-5.29-6.44-1.09-2.63-1.37-5.52-.82-8.3.56-2.79,1.92-5.35,3.93-7.36,2.01-2,4.57-3.37,7.36-3.93,2.78-.55,5.67-.27,8.29.82,2.63,1.09,4.87,2.93,6.45,5.29,1.58,2.36,2.42,5.14,2.42,7.98,0,3.81-1.51,7.46-4.21,10.15-2.69,2.7-6.34,4.21-10.15,4.21Zm0-21.38c-1.42,0-2.81.42-3.99,1.21-1.18.79-2.1,1.91-2.65,3.22-.54,1.31-.68,2.76-.41,4.15.28,1.39.97,2.67,1.97,3.68,1,1,2.28,1.69,3.68,1.96,1.39.28,2.83.14,4.15-.4,1.31-.55,2.43-1.47,3.22-2.65.79-1.18,1.21-2.57,1.21-3.99,0-1.9-.76-3.73-2.11-5.08-1.34-1.34-3.17-2.1-5.07-2.1Z"/><path class="cls-3" d="m415.13,755.25s-160.48,159.22-141.21,195.17c19.26,35.96,333.13,240.17,333.13,240.17l35.7-41.4-190.85-205.19,83.91-78.99s-24.95-13.47-60.32-45.73c-21.53-19.96-41.7-41.36-60.36-64.03h0Z"/><path class="cls-14" d="m457.51,783.5s-128.18,144.92-108.92,180.87c19.26,35.96,258.41,226.21,258.41,226.21l35.71-41.4-190.86-205.2,83.91-78.99s-24.95-13.46-60.32-45.72c-32.85-29.93-17.93-35.77-17.93-35.77Z"/><path class="cls-7" d="m607.04,1194.18c-.7,0-1.38-.2-1.96-.57-12.84-8.37-314.81-205.14-334.29-241.5-5.1-9.55-.5-25.65,14.06-49.24,11-17.85,27.75-40,49.76-65.85,37.4-43.91,77.64-83.93,78.06-84.38.36-.35.78-.63,1.25-.81.47-.18.97-.26,1.48-.23.5.03.99.16,1.43.39.45.23.84.55,1.15.94,18.5,22.53,38.47,43.81,59.8,63.69,34.59,31.51,59.37,45.07,59.62,45.21.5.27.92.65,1.24,1.12.32.47.53,1.01.6,1.57.08.56.02,1.13-.17,1.67-.19.53-.51,1.01-.92,1.4l-81.3,76.57,188.5,202.57c.59.66.91,1.52.91,2.4s-.32,1.74-.91,2.4l-35.73,41.41c-.32.38-.72.68-1.16.89-.45.22-.93.33-1.42.35Zm-192.1-433.6c-9.73,9.82-43.34,44.09-74.86,81.12-64.23,75.4-67,99.44-62.94,107.02,14.78,27.57,220.26,166.15,329.25,237.15l31.58-36.59-188.66-202.86c-.65-.69-1-1.62-.97-2.56.03-.95.44-1.85,1.13-2.5l80.37-75.69c-8.62-5.22-29.55-18.92-56.78-43.75-20.66-19.19-40.07-39.68-58.12-61.34h0Z"/><path class="cls-7" d="m451.86,947.59c-.49,0-.97-.1-1.42-.29-.45-.19-.85-.47-1.19-.83l-35.36-37.19c-.66-.69-1.01-1.62-.99-2.57.02-.95.42-1.86,1.11-2.51.69-.66,1.61-1.02,2.57-.99.95.02,1.86.42,2.51,1.11l35.37,37.2c.32.34.58.74.75,1.18.17.44.25.91.24,1.38-.01.48-.12.94-.31,1.37-.19.43-.47.82-.81,1.15-.67.63-1.55.99-2.47.99h0Z"/><path class="cls-3" d="m1403.6,720.02s163.68,169.8,143.43,205.2c-20.25,35.4-339.7,230.76-339.7,230.76l-34.54-42.41,196.52-199.75-79.76-79.44s23.34-14.65,59.69-45.91c33.68-28.95,54.36-68.45,54.36-68.45Z"/><path class="cls-14" d="m1371.81,763.97s124.03,114.43,103.76,149.83c-20.26,35.4-268.17,242.16-268.17,242.16l-34.54-42.4,196.53-199.76-79.77-79.44s23.34-14.65,59.69-45.9c33.61-28.94,22.5-24.49,22.5-24.49Z"/><path class="cls-7" d="m1207.33,1159.55c-.53,0-1.06-.12-1.54-.35-.48-.23-.91-.56-1.24-.98l-34.54-42.38c-.57-.69-.85-1.56-.82-2.44.04-.89.41-1.72,1.03-2.36l194.03-197.13-77.19-76.93c-.4-.39-.69-.86-.87-1.39-.17-.52-.23-1.08-.16-1.62.08-.55.28-1.07.58-1.53.31-.46.72-.84,1.2-1.11.23-.15,24.25-14.1,59.06-45.46,33.32-30.03,53.41-67.12,53.61-67.5.27-.5.65-.93,1.11-1.25.47-.32,1-.53,1.56-.6.56-.08,1.13-.03,1.66.16.54.18,1.02.49,1.41.9.42.43,41.46,43.09,79.5,89.55,22.4,27.34,39.49,50.66,50.55,69.31,14.74,24.65,19.28,41.29,13.9,50.63-20.49,35.79-327.85,224.03-340.94,232.01-.58.33-1.24.49-1.9.47Zm-29.73-45.76l30.52,37.47c110.93-67.92,320.22-200.68,335.71-227.84,4.27-7.47,1.67-31.9-63.75-111.79-31.6-38.6-65.29-74.57-75.81-85.65-14.3,24.17-32.05,46.11-52.69,65.15-27.51,24.79-48.04,38.67-56.32,43.91l76.51,76.21c.67.67,1.05,1.58,1.05,2.53s-.38,1.86-1.05,2.53l-194.17,197.48Z"/><path class="cls-7" d="m1369.31,917.39c-.71,0-1.4-.21-1.99-.61-.6-.39-1.06-.95-1.33-1.61s-.34-1.38-.2-2.08c.14-.7.49-1.34.99-1.84l36.39-36.19c.68-.67,1.59-1.05,2.55-1.04.95,0,1.86.38,2.53,1.06.68.67,1.05,1.59,1.05,2.54-.01.95-.39,1.87-1.06,2.54l-36.43,36.19c-.66.66-1.56,1.03-2.5,1.04h0Z"/><path class="cls-5" d="m548.67,1267.86v-355.08c0-9.33,3.71-18.27,10.3-24.87,6.6-6.6,15.54-10.3,24.87-10.3h651.53c4.62,0,9.19.91,13.46,2.68,4.26,1.76,8.14,4.36,11.4,7.62,3.27,3.27,5.86,7.14,7.62,11.41,1.77,4.27,2.67,8.84,2.67,13.46v359.57l-119.02,73.37h-450.81l-152.02-77.86Z"/><path class="cls-7" d="m1151.5,1349.31h-450.81c-.57,0-1.13-.14-1.63-.39l-152.02-77.86c-.59-.31-1.09-.76-1.43-1.33-.35-.56-.53-1.21-.53-1.87v-355.08c.01-10.28,4.1-20.13,11.36-27.4,7.27-7.26,17.12-11.35,27.4-11.36h651.53c10.27.01,20.12,4.1,27.39,11.37,7.26,7.26,11.34,17.12,11.35,27.39v359.57c0,.61-.16,1.21-.45,1.75-.3.53-.73.98-1.25,1.3l-119.03,73.37c-.56.36-1.22.54-1.88.54Zm-449.93-7.18h448.9l116.46-71.81v-357.54c0-8.37-3.33-16.4-9.25-22.32-5.91-5.92-13.94-9.25-22.31-9.26h-651.53c-8.37.01-16.4,3.34-22.32,9.26-5.92,5.92-9.25,13.95-9.26,22.32v352.89l149.31,76.46Z"/><path class="cls-7" d="m1210.99,1312.63h-581.91c-.95,0-1.87-.37-2.54-1.05-.67-.67-1.05-1.58-1.05-2.54s.38-1.86,1.05-2.54c.67-.67,1.59-1.05,2.54-1.05h581.91c.95,0,1.87.38,2.54,1.05.67.68,1.05,1.59,1.05,2.54s-.38,1.87-1.05,2.54c-.67.68-1.59,1.05-2.54,1.05Z"/><path class="cls-7" d="m655.04,1632.64c0,5.6-4.54,10.14-10.14,10.14s-10.14-4.54-10.14-10.14c0-3.82,2.11-7.15,5.23-8.87l-3.93-27.95c-4.51-1.03-7.87-5.06-7.87-9.88,0-5.6,4.54-10.14,10.14-10.14s10.14,4.54,10.14,10.14c0,3.82-2.11,7.15-5.24,8.87l3.92,27.95c4.52,1.01,7.89,5.05,7.89,9.88Z"/><path class="cls-7" d="m694.57,1626.07c0,5.6-4.54,10.14-10.14,10.14s-10.14-4.54-10.14-10.14c0-3.82,2.11-7.15,5.23-8.87l-3.93-27.95c-4.51-1.03-7.87-5.06-7.87-9.88,0-5.6,4.54-10.14,10.14-10.14s10.14,4.54,10.14,10.14c0,3.82-2.11,7.15-5.24,8.87l3.92,27.95c4.52,1.01,7.89,5.05,7.89,9.88Z"/><path class="cls-7" d="m730.8,1620.58c0,5.6-4.54,10.14-10.14,10.14s-10.14-4.54-10.14-10.14c0-3.82,2.11-7.15,5.23-8.87l-3.93-27.95c-4.51-1.03-7.87-5.06-7.87-9.88,0-5.6,4.54-10.14,10.14-10.14s10.14,4.54,10.14,10.14c0,3.82-2.11,7.15-5.24,8.87l3.92,27.95c4.52,1.01,7.89,5.05,7.89,9.88Z"/><path class="cls-7" d="m1114.12,1629.98c-2.03,5.22-7.9,7.81-13.12,5.78-5.22-2.03-7.81-7.9-5.78-13.12,1.38-3.56,4.55-5.9,8.08-6.38l6.45-27.48c-3.83-2.59-5.51-7.56-3.76-12.06,2.03-5.22,7.9-7.81,13.12-5.78,5.22,2.03,7.81,7.9,5.78,13.12-1.38,3.56-4.55,5.9-8.09,6.37l-6.46,27.47c3.85,2.58,5.53,7.56,3.78,12.07Z"/><path class="cls-7" d="m1153.35,1638.15c-2.03,5.22-7.9,7.81-13.12,5.78s-7.81-7.9-5.78-13.12c1.38-3.56,4.55-5.9,8.08-6.38l6.45-27.48c-3.83-2.59-5.51-7.56-3.76-12.06,2.03-5.22,7.9-7.81,13.12-5.78,5.22,2.03,7.81,7.9,5.78,13.12-1.38,3.56-4.55,5.9-8.09,6.37l-6.46,27.47c3.85,2.58,5.53,7.56,3.78,12.07Z"/><path class="cls-7" d="m1189.11,1646.14c-2.03,5.22-7.9,7.81-13.12,5.78-5.22-2.03-7.81-7.9-5.78-13.12,1.38-3.56,4.55-5.9,8.08-6.38l6.45-27.48c-3.83-2.59-5.51-7.56-3.76-12.06,2.03-5.22,7.9-7.81,13.12-5.78s7.81,7.9,5.78,13.12c-1.38,3.56-4.55,5.9-8.09,6.37l-6.46,27.47c3.85,2.58,5.53,7.56,3.78,12.07Z"/><path class="cls-1" d="m1047.43,170.37c-.49-.98-.97-1.95-1.45-2.93-.18.04-.35.07-.53.11-1.05.22-1.36,20.52-1.48,22.78-.39,7.48-.45,15.15-.79,22.5-.07,1.47,0,2.93,0,4.4v6.14c-1.05-1.09-1.79-1.85-2.83-2.9-.68,3.19-1.28,5.91-1.84,8.64-.19.93-.3,1.88-.46,2.82,0,.21.1.47,0,.64-1.4,2.79-1.46,5.82-1.89,8.79-.15.25-.4.49-.43.75-.19,1.65-.39,3.32-.48,4.97-.03.44.32.88.5,1.32-.17.48-.48.97-.48,1.45-.03,3.81-1.02,7.61-.09,11.42-.19.23-.4.46-.58.71-.24.36-.47.75-.71,1.12-.3-3.37-.61-6.73-.9-10.11-1.18-13.74-4.77-27.36-6.57-41.06-2.86-21.82-.29-44.96-7.15-66.11-5.36-16.21-14.01-31.22-22.63-46.02-1.6-2.75-3.23-5.54-5.53-7.8-4.21-4.12-10.18-6.05-15.92-7.84.8-.59,1.59-1.18,2.39-1.77-4.79,3.53-15.52-.94-20.84-1.36-24.34-1.95-43.88,3.64-52.12,2.9-19.27-1.73-31.1-5.67-50.51-7.11-2.38-.18-11.9-.98-14.16-.28-1.66.51-3.14,1.45-4.59,2.39-27.47,17.63-48.69,41.45-49.7,74.33-.34,11.11,1.28,22.13,2.51,33.15,1.28,11.45.86,21.06-.94,32.41-.42,2.59-.79,5.19-1.17,7.79-.32,2.19-.63,4.37-.97,6.57-.12.78-.28,1.55-.39,2.34-.19,1.61-.36,3.21-.55,4.83-.34,2.16-.72,4.33-1,6.5-.63,4.88-1.19,9.77-1.82,14.65-.18,1.37-.15,2.81-.93,4.31-.55-1.38-.99-2.52-1.44-3.65-.16-.64-.32-1.29-.48-1.93-.41-1.51-.81-3.04-1.26-4.54-.04-.13-.39-.18-.58-.26-.04-.84-8.29-30.01-8.43-30.56-.74-2.91-1.53-5.79-2.36-8.68-.12-.37-.53-.67-.8-1-.34-2.01-.68-4.01-1.02-6.03-.28-1.11-.56-2.23-.89-3.57-.83.65-1.45,1.13-2.32,1.82-.05-.7-.12-1.17-.1-1.63.17-4.82.11-9.66.59-14.45,1.42-13.87-2.34-29.36-3.83-43.26-1.01-9.41-2.01-18.9-1.02-28.31,1.7-16.04,11.56-30.1,22.06-42.31,1.99-2.31,4.02-4.59,6.24-7.12-.79,0-1.38-.13-1.88.02-1.74.54-3.45,1.18-5.18,1.76-.55.19-1.12.3-1.8.26,7.27-10.06,16.08-18.27,28.95-22.44-4.83-1.19-9.22-.59-13.54-.58-.27-.88.28-1.07.84-1.4,4.9-3.01,10.26-5.03,15.8-6.69,1.95-.59,3.93-1.11,6.45-1.82-1.93-.66-3.41-1.16-4.89-1.66-.02-.17-.04-.33-.06-.51,7.74-6.46,17.33-9.79,19-10.37,4.53-1.56,13.73-3.82,18.52-2.98.2.04.39.14.6.16-5.82-2.65-12.17-3.28-18.61-4.49,1.21-1.44,20.89-10.79,50.41-10.77.3,0,.55.26,1.1.52-.47-1.8-1.53-3.06-2.24-4.46-.27-.53-.47-1.11-.69-1.65.12-.13.24-.25.36-.38.89.32,1.81.56,2.64.98,3.01,1.53,5.94,3.23,9.01,4.66,1.97.92,4.1,1.54,6.2,2.16,3.5,1.03,7.02,1.96,10.97,3.05-1.5-2.21-2.75-4.06-4-5.91,1.16-.78,1.84-.07,2.55.27,3.05,1.46,6.05,3.03,9.15,4.4,1.57.7,3.3,1.06,4.95,1.59,3.09,1,6.17,1.89,9.12,3.33,2.86,1.38,5.28,3.2,7.84,5.02,1.18-2,8.75.77,10.93,1.93,1.77.93,3.56,1.82,5.37,2.68,3.7,1.76,7.86,8.08,10.93,10.76.34.3.03-1.82-.75-2.97-.83-1.24-1.79-2.41-2.98-3.97,6.17,1.85,11.45,4.47,16.6,7.88-.44-1.11-.91-2.21-1.28-3.34-.37-1.1,19.99,2.5,26.37,11.33,1.48,2.05,3.36,3.34,4.36,5.59.3.68.98,1.25,1.79,2.25.69-5.33.3-6.4-.66-11.52.83.45,1.42.65,1.85,1.03,4.03,3.58,7.03,7.88,9.4,12.59,1.77,3.51,3.46,7.06,5.61,10.52.17-1.76.33-3.53.5-5.29.17-.03.33-.06.5-.08,2.02,3.99,3.16,8.32,4.89,12.75,1.09-1.3,2.04-2.41,2.97-3.53.18.05.35.08.52.13.2,2.6.41,5.2.62,7.85,2.15,1.27,4.66,1.14,7.54,1.62-1.37.91-2.4,1.58-3.57,2.35,3.58,5.29,7.57,10.28,10.64,15.81-1.52.93-2.54-.09-3.98-.45,7.75,23.74,4.18,47.62,2.9,72.05Z"/><path class="cls-2" d="m763.82,209.21c.61,1.94.89,3.93,1.24,5.96-.19-.91-4.82-.46-5.47-.24-3.82,1.3-4.99,5.18-5.13,8.68-.89,21.63,3.23,48.18,10.48,71.22.89,2.84,3.79,10.43,6.44,12.31,1.82,1.28,3.82,1.3,5.94.91.64-.12,4.37-.53,4.29-1.46-.18-2.3-.34-4.36-.51-6.42-1.06-12.68-1.76-25.3-2.13-38.02.45,1.13.89,2.26,1.44,3.65.77-1.49,3.41-23.3,3.75-25.47.06,1.11.15,2.22.18,3.33.72,29.19,2.07,58.47,4.04,87.67,1.42,21.08,5.8,42.84,19.01,59.8,10.89,13.99,26.89,23.56,39.11,36.52,4.91,5.21,9.29,11.02,15.31,15.03,10.5,7,24.21,7.43,37.02,7.21,14.56-.24,29.81-1.18,42.23-8.43,9.73-5.68,16.72-14.66,25.01-22.11,12.96-11.64,29.54-19.94,39.42-34.06,7.66-10.94,10.46-24.24,12.72-37.2,3.71-21.2,6.43-42.55,8.15-63.98.86-10.71,1.47-21.45,1.84-32.19.25-7.53,3.28-21.42.13-28.49.19.41.49.8.54,1.22.34,2.93.93,5.86.83,8.78-.05,1.64.87,2.87.96,4.42.9,14.64,2.56,29.3,1.99,43.98-.15,3.74-5.52,37.22,8.7,25.14,2.39-2.03,3.34-5.14,4.19-8.08,6.96-24.18,13.97-48.83,12.89-73.87-.16-3.68-.9-7.98-4.33-9.67-3.38-1.67-7.58.56-10.63.85-.37-9.22,12.26-8.31,16.8-2.99,4.01,4.7,4.49,11.23,4.38,17.29-.38,21.73-5.98,43.04-11.56,64.12-1.48,5.59-3.12,11.46-7.32,15.61-4.21,4.15-11.88,5.71-16.26,1.73-6.78,23.89-3.05,50.79-16.21,72.13-10.52,17.06-29.81,27.12-44.87,40.75-7.81,7.07-14.66,15.27-23.72,20.81-13.68,8.36-30.73,9.68-46.98,9.79-11.88.08-24.24-.47-34.73-5.78-9.73-4.92-16.81-13.39-24.43-20.97-14.4-14.31-31.82-26.34-42.34-43.46-13.24-21.53-13.62-47.83-13.64-72.79-4.07,3.51-10.93,2.18-14.87-1.46-3.94-3.64-5.68-8.88-7.2-13.91-6.7-22.14-12-44.88-12.2-67.92-.04-4.62.17-9.41,2.38-13.53,2.51-4.69,7.54-7.09,12.91-7.03.07.2.14.4.2.6Z"/><g id="face"><path class="cls-7" d="m960.05,260.85c-6.03-.08-11.86-2.1-16.65-5.76-.73-.61-1.19-1.48-1.28-2.43-.08-.95.21-1.9.82-2.63.61-.74,1.48-1.2,2.43-1.28.95-.09,1.9.2,2.63.81,2.83,2.11,6.15,3.46,9.64,3.95,7.43.99,14.47-2.55,20.93-10.45.29-.39.66-.72,1.07-.97.42-.24.89-.4,1.37-.47.48-.06.97-.02,1.44.11.47.14.91.36,1.28.67.38.31.69.69.92,1.12.22.43.36.9.4,1.39.04.48-.02.97-.18,1.43-.16.46-.41.88-.73,1.25-6.5,7.97-13.79,12.38-21.69,13.14-.8.08-1.6.12-2.4.12h0Z"/><path class="cls-7" d="m940.51,203.56c-.82,0-1.61-.29-2.25-.81-.64-.52-1.08-1.24-1.25-2.04-.17-.81-.05-1.65.32-2.38.38-.73,1-1.31,1.75-1.64,1.56-.69,38.36-16.47,56.24.7.34.32.62.71.81,1.15.19.43.29.89.3,1.37.01.47-.07.94-.24,1.38-.18.44-.43.84-.76,1.18-.33.34-.72.61-1.15.8-.43.19-.89.29-1.37.3-.47.01-.94-.07-1.38-.24-.44-.17-.84-.43-1.18-.75-14.47-13.88-48.08.53-48.47.7-.43.18-.9.28-1.37.28Z"/><path class="cls-7" d="m860.42,260.33c5.97-.84,11.5-3.58,15.79-7.82.65-.7.99-1.62.96-2.57-.04-.95-.45-1.86-1.15-2.51-.7-.66-1.62-1-2.57-.96-.95.03-1.86.44-2.51,1.14-2.54,2.45-5.66,4.21-9.06,5.14-7.25,1.92-14.68-.7-22.08-7.72-.34-.35-.75-.63-1.18-.83-.45-.19-.93-.28-1.42-.29-.48,0-.96.1-1.41.29-.45.2-.86.47-1.18.83-.34.36-.6.77-.77,1.23-.16.45-.24.94-.22,1.43.02.48.14.96.36,1.4.22.44.52.82.88,1.15,7.46,7.08,15.25,10.54,23.18,10.29.8-.02,1.6-.08,2.4-.18h0Z"/><path class="cls-7" d="m881.87,206.66c.82,0,1.61-.29,2.25-.81s1.08-1.24,1.25-2.04c.17-.81.05-1.65-.32-2.38-.38-.73-1-1.31-1.75-1.64-1.56-.69-38.36-16.47-56.24.7-.34.32-.62.71-.81,1.15-.19.43-.29.89-.3,1.37-.01.47.07.94.24,1.38.18.44.43.84.76,1.18.33.34.72.61,1.15.8.43.19.89.29,1.37.3.47.01.94-.07,1.38-.24.44-.17.84-.43,1.18-.75,14.47-13.88,48.08.53,48.47.7.43.18.9.28,1.37.28Z"/><path class="cls-7" d="m903.62,371.98c-12.79,0-20.95-3.28-21.42-3.47-2.04-.84-3.02-3.18-2.17-5.22.84-2.04,3.17-3.01,5.21-2.18.22.09,14.05,5.51,33.57,1.18,19.6-4.34,27.83-12.02,27.91-12.1,1.59-1.52,4.12-1.47,5.65.11,1.53,1.58,1.5,4.09-.07,5.63-.39.38-9.7,9.28-31.76,14.17-6.23,1.38-11.93,1.88-16.92,1.88Z"/><path class="cls-7" d="m937.4,305.15c.68.09,1.37-.17,1.94-.71.3-.28.56-.65.76-1.05.2-.41.34-.85.42-1.32.07-.46.07-.95,0-1.4-.07-.45-.21-.88-.41-1.25-.19-.39-20.5-39.61-18.58-69.28.06-.95-.17-1.87-.63-2.55-.47-.69-1.13-1.08-1.85-1.1s-1.44.34-1.99,1.01c-.55.66-.9,1.57-.96,2.52-2.14,32.29,18.53,72.12,19.38,73.8.22.4.5.72.83.94.34.23.7.36,1.08.39Z"/><path class="cls-7" d="m929.11,320.29c.72-.07,1.35-.53,1.75-1.26.4-.72.55-1.66.4-2.6-.14-.95-.56-1.81-1.17-2.42-.61-.61-1.35-.9-2.07-.82l-30.49.96c-.73.03-1.39.43-1.84,1.11-.44.69-.64,1.61-.54,2.56.1.96.48,1.86,1.07,2.52.59.66,1.32,1.02,2.05.99l30.44-.98.39-.05Z"/></g><path class="cls-6" d="m898.35,1152.02c-6.5,0-11.9-.76-16.04-2.26-4.49-1.63-7.89-4.21-10.1-7.65-2.16-3.36-3.26-7.63-3.26-12.69v-12.3c0-1.36-.35-2.48-1.07-3.42-.23-.3-.75-.98-2.62-.98h-8.8v-18.4h8.8c1.66,0,2.27-.53,2.63-.98.72-.94,1.07-2.06,1.07-3.42v-12.4c0-5.06,1.1-9.33,3.26-12.69,2.23-3.46,5.63-6.02,10.13-7.61,4.16-1.48,9.39-2.23,15.98-2.3l3.53-.03v18.53h-3.5c-4.26,0-6.36.26-7.37.47-.75.16-1.26.39-1.43.66-.08.13-.5.91-.5,3.27v7.5c0,6.7-1.46,11.98-4.33,15.69-.71.92-1.54,1.76-2.49,2.51.94.75,1.77,1.58,2.49,2.51,2.87,3.71,4.33,8.96,4.33,15.59v7.5c0,2.36.42,3.14.5,3.27.16.25.7.5,1.43.66,1.03.21,3.16.47,7.37.47h3.5v18.5h-3.5Z"/><path class="cls-10" d="m898.35,1058.42v11.5c-3.67,0-6.37.18-8.1.55-1.74.36-2.95,1.1-3.65,2.2s-1.05,2.81-1.05,5.15v7.5c0,5.93-1.2,10.45-3.6,13.55-1.67,2.16-4.19,3.71-7.57,4.65,3.38.94,5.9,2.49,7.57,4.65,2.4,3.1,3.6,7.58,3.6,13.45v7.5c0,2.33.35,4.05,1.05,5.15.7,1.1,1.91,1.83,3.65,2.2,1.73.36,4.43.55,8.1.55v11.5c-6.14,0-11.09-.69-14.85-2.05-3.77-1.37-6.55-3.45-8.35-6.25-1.8-2.8-2.7-6.4-2.7-10.8v-12.3c0-2.14-.6-3.99-1.8-5.55-1.2-1.57-3-2.35-5.4-2.35h-5.3v-11.4h5.3c2.4,0,4.2-.79,5.4-2.35,1.2-1.57,1.8-3.42,1.8-5.55v-12.4c0-4.4.9-8,2.7-10.8,1.8-2.8,4.58-4.87,8.35-6.2,3.76-1.34,8.71-2.04,14.85-2.1m7-7.07l-7.07.07c-6.99.07-12.59.89-17.13,2.51-5.23,1.84-9.23,4.88-11.89,9.01-2.53,3.93-3.81,8.84-3.81,14.59v12.4c0,.41-.05.69-.14.9-.02,0-.04,0-.06,0h-12.3v25.4h12.3s.05,0,.07,0c.07.2.13.48.13.9v12.3c0,5.74,1.28,10.65,3.81,14.59,2.64,4.1,6.62,7.15,11.85,9.04,4.6,1.66,10.24,2.47,17.24,2.47h7v-25.5h-7c-2.99,0-4.78-.14-5.79-.26,0-.19-.01-.4-.01-.64v-7.5c0-7.43-1.7-13.39-5.07-17.74-.09-.12-.19-.24-.29-.36.1-.12.2-.24.29-.37,3.36-4.34,5.06-10.34,5.06-17.83v-7.5c0-.24,0-.45.01-.64,1.03-.13,2.79-.26,5.79-.26h7v-25.57h0Z"/><path class="cls-6" d="m920.85,1152.02v-18.5h3.5c4.2,0,6.34-.26,7.39-.48.71-.15,1.25-.4,1.41-.65.08-.13.5-.91.5-3.27v-7.5c0-6.63,1.46-11.88,4.33-15.59.72-.92,1.55-1.76,2.5-2.51-.94-.75-1.78-1.58-2.49-2.5-2.88-3.72-4.34-9-4.34-15.7v-7.5c0-2.36-.42-3.14-.5-3.27-.17-.26-.69-.5-1.41-.65-1.03-.22-3.13-.48-7.39-.48h-3.5v-18.53l3.53.03c6.58.06,11.81.82,15.99,2.3,4.49,1.59,7.9,4.15,10.12,7.6,2.16,3.36,3.26,7.63,3.26,12.69v12.4c0,1.35.35,2.47,1.08,3.42.35.45.96.97,2.62.97h8.8v18.4h-8.8c-1.87,0-2.4.68-2.62.97-.73.95-1.08,2.07-1.08,3.43v12.3c0,5.06-1.09,9.33-3.25,12.69-2.21,3.44-5.61,6.01-10.1,7.65-4.16,1.5-9.56,2.26-16.05,2.26h-3.5Z"/><path class="cls-10" d="m924.35,1058.42c6.13.06,11.08.76,14.85,2.1,3.76,1.33,6.55,3.4,8.35,6.2,1.8,2.8,2.7,6.4,2.7,10.8v12.4c0,2.13.6,3.98,1.8,5.55,1.2,1.56,3,2.35,5.4,2.35h5.3v11.4h-5.3c-2.4,0-4.2.78-5.4,2.35-1.2,1.56-1.8,3.41-1.8,5.55v12.3c0,4.4-.9,8-2.7,10.8-1.8,2.8-4.59,4.88-8.35,6.25-3.77,1.36-8.72,2.05-14.85,2.05v-11.5c3.66,0,6.36-.19,8.1-.55,1.73-.37,2.95-1.1,3.65-2.2.7-1.1,1.05-2.82,1.05-5.15v-7.5c0-5.87,1.2-10.35,3.6-13.45,1.67-2.15,4.19-3.7,7.56-4.65-3.37-.95-5.89-2.5-7.56-4.65-2.4-3.1-3.6-7.62-3.6-13.55v-7.5c0-2.34-.35-4.05-1.05-5.15s-1.92-1.84-3.65-2.2c-1.74-.37-4.44-.55-8.1-.55v-11.5m-7-7.07v25.57h7c3.01,0,4.77.13,5.79.26,0,.19.01.4.01.64v7.5c0,7.49,1.7,13.49,5.06,17.84.1.12.19.24.29.36-.1.12-.19.24-.28.36-3.37,4.35-5.07,10.32-5.07,17.74v7.5c0,.24,0,.45-.01.64-1.02.13-2.81.26-5.79.26h-7v25.5h7c6.99,0,12.63-.81,17.23-2.47,5.25-1.91,9.23-4.95,11.86-9.05,2.53-3.93,3.81-8.84,3.81-14.59v-12.3c0-.42.06-.7.13-.9.02,0,.04,0,.07,0h12.3v-25.4h-12.3s-.05,0-.07,0c-.08-.21-.13-.49-.13-.9v-12.4c0-5.74-1.28-10.65-3.81-14.59-2.65-4.13-6.66-7.16-11.9-9.01-4.54-1.61-10.14-2.43-17.12-2.5l-7.07-.07h0Z"/></g></svg>